  <svg xmlns="http://www.w3.org/2000/svg" viewBox="0 0 230.6 49" width="400" height="100">
  <path  fill="#FFF" d="M22.5 4.4v4.2H5v9.7h15.2v4.2H5v15H0V4.4h22.5zM32.2 4.6v5h-4.9v-5h4.9zm0 9.1v23.9h-4.9V13.7h4.9zM42.4 4.6v33h-4.9v-33h4.9zM52.6 4.6v5h-4.9v-5h4.9zm0 9.1v23.9h-4.9V13.7h4.9zM57.2 13.7h4.9v1.9c.8-.8 1.8-1.4 2.9-1.8s2.1-.6 3.1-.6c1.7 0 3.1.3 4.4 1s2.4 1.5 3.3 2.6 1.6 2.4 2.1 3.9.7 3.1.7 4.8c0 1.7-.2 3.3-.7 4.8s-1.1 2.8-2 3.9-2 2-3.3 2.6-2.8 1-4.4 1c-1 0-2.1-.2-3.1-.6s-2.1-1-3-1.8v11.4h-4.9V13.7zm4.9 12.2c0 1.1.2 2.1.5 3.1s.7 1.8 1.2 2.5 1.1 1.3 1.8 1.7 1.5.6 2.3.6c.9 0 1.6-.2 2.4-.7s1.3-1 1.8-1.8.9-1.6 1.1-2.6.4-2.1.4-3.2-.1-2.2-.4-3.2-.7-1.9-1.1-2.6-1.1-1.3-1.8-1.8-1.5-.6-2.4-.6c-.9 0-1.7.2-2.4.6s-1.3 1-1.9 1.8-.9 1.6-1.2 2.6-.4 2.1-.4 3.2v.4zM103.4 4.4l9.6 25.7 9.8-25.7h5.8v33.2h-5V15.1l-8.2 22.5H111l-8.4-22.5v22.5h-5V4.4h5.8zM138.6 4.6v5h-4.9v-5h4.9zm0 9.1v23.9h-4.9V13.7h4.9zM143.1 13.7h4.9l-.1 1.6c.7-.7 1.4-1.2 2.2-1.5s1.7-.5 2.8-.5c.3 0 .6 0 1 .1s.9.2 1.3.4v4.7c-1.4-.5-2.2-.7-2.4-.7-.8 0-1.4.2-2.1.5s-1.1.7-1.5 1.2-.7 1.1-.9 1.8-.3 1.4-.3 2.1v14.3h-4.9v-24zM178.8 37.6H174v-1.9c-.8.8-1.7 1.3-2.7 1.7s-2 .6-2.9.6c-1.7 0-3.1-.3-4.4-1s-2.4-1.5-3.2-2.6-1.5-2.4-1.9-3.9c-.4-1.5-.7-3.1-.7-4.8s.2-3.3.6-4.8 1.1-2.8 1.9-3.9 1.9-2 3.2-2.6 2.7-1 4.4-1c.5 0 .9.1 1.4.2s1 .3 1.5.5 1 .5 1.4.8.9.6 1.3 1V4.6h4.9v33zM174 25.4c0-1.1-.2-2.1-.4-3.1s-.6-1.8-1.1-2.5-1-1.3-1.7-1.7-1.4-.6-2.3-.6c-.9 0-1.6.2-2.3.7s-1.3 1-1.7 1.8-.8 1.6-1.1 2.6-.4 2.1-.4 3.2.1 2.2.4 3.2.6 1.9 1.1 2.6c.5.8 1 1.3 1.7 1.8s1.4.6 2.3.6c.9 0 1.7-.2 2.3-.6s1.2-1 1.7-1.8.8-1.6 1.1-2.6.4-2.1.4-3.2v-.4zM188.8 4.6v5H184v-5h4.8zm0 9.1v23.9H184V13.7h4.8zM200 6.9v6.8h3.5v4H200v14.2c0 .8.2 1.3.5 1.6s.7.4 1.3.4c.2 0 .5 0 .8-.1s.9-.2 1.5-.3v3.9c-.6.2-1.3.3-1.9.4s-1.2.2-1.8.2c-.7 0-1.4-.1-2.1-.3s-1.2-.5-1.7-.9-.9-.9-1.2-1.5-.4-1.4-.4-2.3V17.7h-3.5v-4h3.5V6.9h5zM208.6 20.9c.1-1.3.4-2.4 1-3.4s1.4-1.8 2.3-2.4 1.9-1.1 3-1.4 2.2-.4 3.3-.4c1.2 0 2.4.1 3.6.4s2.2.7 3.1 1.3 1.6 1.3 2.1 2.3.8 2 .8 3.4v12c0 .4.1.7.2 1s.4.4.6.4c.1 0 .3 0 .7-.1s.7-.2 1.2-.4v3.9c-.7.2-1.3.3-1.7.4s-.8.1-1.2.1c-1 0-1.8-.3-2.5-.8s-1.2-1.3-1.5-2.4c-.7.7-1.3 1.2-1.9 1.7s-1.3.8-1.9 1-1.3.4-2 .5-1.3.1-2.1.1c-1 0-2-.2-2.9-.5s-1.7-.8-2.4-1.4-1.2-1.3-1.6-2.2-.6-1.8-.6-2.9c0-1.2.3-2.2.9-3s1.3-1.5 2.2-2 1.9-1 3-1.4 2.2-.7 3.3-1l2.1-.6s1.2-.4 1.7-.7.9-.5 1.2-.8.4-.6.4-1.1c0-1.1-.4-2-1.2-2.5s-2-.8-3.5-.8c-.6 0-1.1.1-1.6.2s-1 .3-1.4.6-.7.6-1 1.1-.5 1-.6 1.6h-5.1zm14.4 4.6c-.4.3-.9.6-1.6.8s-1.3.4-2.1.6-1.5.4-2.2.6-1.4.5-2 .8-1.1.6-1.5 1.1-.6.9-.6 1.5c0 .5.1 1 .3 1.4.2.4.4.7.7 1s.6.4 1 .6.8.2 1.1.2c1.2 0 2.4-.4 3.6-1.2s2.3-2 3.2-3.6v-3.8z"/>
</svg>
