<svg id="Layer_1" data-name="Layer 1" xmlns="http://www.w3.org/2000/svg" viewBox="0 0 264.38 44.81"><defs><style>.cls-1{fill:#1b5e20;}</style></defs><title>name</title><path class="cls-1" d="M3.66,3.39H28.29V9.46H10.83v7.95h15.3v6H10.83V37.89H3.66V3.39Z" transform="translate(-3.66 -3.13)"/><path class="cls-1" d="M39.3,9.3H32.53V3.13H39.3V9.3Zm-6.77,3H39.3V37.89H32.53V12.35Z" transform="translate(-3.66 -3.13)"/><path class="cls-1" d="M52.59,37.89H45.91V3.35h6.68V37.89Z" transform="translate(-3.66 -3.13)"/><path class="cls-1" d="M66,9.3H59.2V3.13H66V9.3Zm-6.77,3H66V37.89H59.2V12.35Z" transform="translate(-3.66 -3.13)"/><path class="cls-1" d="M93.93,15.09q3.13,3.3,3.13,9.7,0,6.75-3.05,10.29a9.92,9.92,0,0,1-7.87,3.54A8.25,8.25,0,0,1,81,37.1a9.85,9.85,0,0,1-2.17-2.46V47.95H72.26V12.35h6.4v3.77A10.74,10.74,0,0,1,81,13.49a8.53,8.53,0,0,1,5.33-1.71A10.1,10.1,0,0,1,93.93,15.09Zm-5.13,4.8a4.75,4.75,0,0,0-4.42-2.27,5,5,0,0,0-5,3.45,12.93,12.93,0,0,0-.71,4.64q0,4.45,2.39,6.26A5.48,5.48,0,0,0,84.39,33a4.89,4.89,0,0,0,4.3-2.16,10,10,0,0,0,1.48-5.74A10,10,0,0,0,88.8,19.89Z" transform="translate(-3.66 -3.13)"/><path class="cls-1" d="M138.56,3.35h10.39V37.89h-6.73V14.53q0-1,0-2.82t0-2.8l-6.55,29h-7l-6.5-29q0,1,0,2.8t0,2.82V37.89h-6.73V3.35H126l6.29,27.16Z" transform="translate(-3.66 -3.13)"/><path class="cls-1" d="M162,9.3h-6.77V3.13H162V9.3Zm-6.77,3H162V37.89h-6.77V12.35Z" transform="translate(-3.66 -3.13)"/><path class="cls-1" d="M182.61,11.75l0.57,0v6.84q-0.63-.07-1.12-0.09l-0.8,0q-4,0-5.41,2.63a10.21,10.21,0,0,0-.77,4.55V37.89h-6.73V12.35h6.38V16.8a14.12,14.12,0,0,1,2.7-3.49,7.34,7.34,0,0,1,4.88-1.57h0.32Z" transform="translate(-3.66 -3.13)"/><path class="cls-1" d="M200.65,12.76a8.11,8.11,0,0,1,2.93,2.82V3.39h6.77v34.5h-6.49V34.35a9.42,9.42,0,0,1-3.26,3.3,9.15,9.15,0,0,1-4.55,1,9.49,9.49,0,0,1-7.54-3.62,13.91,13.91,0,0,1-3.06-9.29q0-6.54,3-10.29a9.8,9.8,0,0,1,8.05-3.75A8.24,8.24,0,0,1,200.65,12.76ZM202.29,31a9.32,9.32,0,0,0,1.48-5.46q0-4.69-2.37-6.7A5.09,5.09,0,0,0,198,17.57a4.69,4.69,0,0,0-4.3,2.21,10.26,10.26,0,0,0-1.37,5.5,10.17,10.17,0,0,0,1.39,5.66A4.72,4.72,0,0,0,198,33.06,4.93,4.93,0,0,0,202.29,31Z" transform="translate(-3.66 -3.13)"/><path class="cls-1" d="M223.29,9.3h-6.77V3.13h6.77V9.3Zm-6.77,3h6.77V37.89h-6.77V12.35Z" transform="translate(-3.66 -3.13)"/><path class="cls-1" d="M227.13,17.34V12.58h3.56V5.46h6.61v7.12h4.15v4.76H237.3v13.5a3,3,0,0,0,.4,2,4.39,4.39,0,0,0,2.44.39h0.64l0.67,0v5l-3.16.12q-4.73.16-6.47-1.64a4.88,4.88,0,0,1-1.12-3.54V17.34h-3.56Z" transform="translate(-3.66 -3.13)"/><path class="cls-1" d="M255.86,22.35a10.57,10.57,0,0,0,2.67-.59,2,2,0,0,0,1.44-1.9,2.24,2.24,0,0,0-1.1-2.17,7,7,0,0,0-3.24-.6,4.26,4.26,0,0,0-3.4,1.17,4.83,4.83,0,0,0-1,2.34h-6.45a9.77,9.77,0,0,1,1.88-5.51q2.66-3.37,9.13-3.37a16.29,16.29,0,0,1,7.49,1.66q3.27,1.66,3.27,6.28V31.4q0,1.22,0,3a3.71,3.71,0,0,0,.4,1.78,2.39,2.39,0,0,0,1,.77v1h-7.27a7.44,7.44,0,0,1-.42-1.45q-0.12-.68-0.19-1.55A13.79,13.79,0,0,1,257,37.45a9.69,9.69,0,0,1-4.9,1.24,8.46,8.46,0,0,1-5.76-2A7,7,0,0,1,244,31.1a7.27,7.27,0,0,1,3.66-6.82,16.34,16.34,0,0,1,5.9-1.64Zm4.08,3.12a7.4,7.4,0,0,1-1.29.64,10.94,10.94,0,0,1-1.79.46l-1.52.28a10,10,0,0,0-3.07.91,3.05,3.05,0,0,0-1.58,2.84,3,3,0,0,0,1,2.47,3.66,3.66,0,0,0,2.34.76,7,7,0,0,0,4-1.27q1.84-1.27,1.92-4.62V25.47Z" transform="translate(-3.66 -3.13)"/></svg>